#!OML:ASF I:\salsa\salsa 7_09\Patient 1\Session 1\dancermale.ASF
:FULLY-SPECIFIED
:DEGREES
1424
root 1.63974 17.1993 13.8836 1621.45 50.5627 538.206
lowerback -12.0481 6.4105 -17.1732
upperback 8.06018 11.4129 8.29466
thorax 10.5147 3.90353 21.2593
lowerneck -16.737 -40.5803 14.4887
upperneck -4.67183 -19.0267 358.1
head 197.851 -36.4897 8.32192
rclavicle 3.33958e-014 -3.97569e-014
rhumerus -1.73947 59.7771 -74.3716
rradius 88.0842
rwrist 12.9994
rhand -28.6341 -12.8594
rfingers 7.12502
rthumb -1.99829 -402.83
lclavicle 3.33958e-014 -3.97569e-014
lhumerus -28.1909 -32.3614 125.823
lradius 110.63
lwrist 37.1197
lhand 11.1235 43.7986
lfingers 7.12502
lthumb 36.1912 -1009.93
rfemur -6.48194 -5.01419 17.6676
rtibia 21.815
rfoot -10.513 -32.1182
rtoes -34.1067
lfemur -29.2385 1.13147 -10.2107
ltibia 35.5911
lfoot -19.8818 14.0261
ltoes 58.062
1425
root 1.58442 17.2042 13.9011 1621.59 49.6719 538.196
lowerback -9.49242 7.55199 -12.8701
upperback 6.47644 11.8138 4.66293
thorax 8.85939 4.79922 14.058
lowerneck -17.4973 -42.1987 19.9671
upperneck -3.74455 -22.4846 359.089
head 198.772 -33.0444 7.8139
rclavicle -8.01102e-014 1.19271e-014
rhumerus -2.78804 54.6871 -86.0119
rradius 84.345
rwrist 15.6044
rhand -26.9958 -14.9018
rfingers 7.12502
rthumb -0.416069 -404.881
lclavicle -8.01102e-014 1.19271e-014
lhumerus -29.8835 -33.4478 120.141
lradius 111.447
lwrist 37.3932
lhand 11.6189 43.7664
lfingers 7.12502
lthumb 36.6602 -1010.08
rfemur -6.91511 -5.22812 17.5928
rtibia 22.1457
rfoot -10.5086 -32.4815
rtoes -33.6461
lfemur -30.1432 0.83296 -9.81604
ltibia 38.5093
lfoot -18.4553 14.4562
ltoes 59.0599
1426
root 1.54637 17.2125 13.9099 1621.85 48.6809 538.378
lowerback -12.4571 7.3194 -17.3966
upperback 8.30788 12.8058 8.82819
thorax 10.2178 4.61168 22.2019
lowerneck -19.3532 -41.186 15.5578
upperneck -4.71837 -19.0763 358.129
head 197.167 -40.4244 8.88353
rclavicle -8.66701e-014 2.06736e-014
rhumerus 1.83352 53.3528 -77.8839
rradius 82.0816
rwrist 15.8422
rhand -25.5932 -16.1339
rfingers 7.12502
rthumb 0.93865 -406.112
lclavicle -8.66701e-014 2.06736e-014
lhumerus -26.2707 -31.6517 125.434
lradius 110.787
lwrist 36.1167
lhand 12.5989 43.9316
lfingers 7.12502
lthumb 37.5869 -1010.16
rfemur -6.93299 -4.8117 17.7663
rtibia 21.8235
rfoot -10.3286 -33.1813
rtoes -32.7467
lfemur -30.6348 -0.015684 -9.1253
ltibia 40.7826
lfoot -17.5872 14.8811
ltoes 59.69
1427
root 1.5306 17.2255 13.9099 1622.17 47.5688 538.767
lowerback -9.64689 8.29901 -13.1155
upperback 6.53824 12.865 5.15288
thorax 8.5222 5.33418 14.8157
lowerneck -19.9551 -42.8826 21.4141
upperneck -3.64878 -22.6393 359.154
head 198.106 -36.2526 8.35235
rclavicle -6.67916e-014 3.81667e-014
rhumerus 1.60091 47.5925 -88.5675
rradius 78.0824
rwrist 17.6544
rhand -24.5231 -16.5455
rfingers 7.12502
rthumb 1.97219 -406.516
lclavicle -6.67916e-014 3.81667e-014
lhumerus -28.037 -32.3856 119.158
lradius 111.748
lwrist 35.9798
lhand 12.2391 44.6954
lfingers 7.12502
lthumb 37.2468 -1009.3
rfemur -6.51117 -4.07786 18.1713
rtibia 21.0284
rfoot -10.1648 -34.1939
rtoes -31.2098
lfemur -30.6238 -1.34484 -8.13489
ltibia 42.2799
lfoot -17.0758 15.4159
ltoes 59.8132
1428
root 1.512 17.2446 13.8913 1622.41 46.3782 538.979
lowerback -12.7509 7.73219 -17.744
upperback 8.44791 13.5294 9.39199
thorax 9.99691 4.97703 23.2111
lowerneck -21.5058 -41.7277 16.6339
upperneck -4.78513 -19.0514 358.134
head 196.851 -43.259 9.43333
rclavicle 7.95139e-014 6.67916e-014
rhumerus 6.0625 46.0499 -80.4387
rradius 75.1455
rwrist 17.9494
rhand -23.7819 -16.6807
rfingers 7.12502
rthumb 2.68798 -406.643
lclavicle 7.95139e-014 6.67916e-014
lhumerus -24.8204 -30.115 124.505
lradius 111.064
lwrist 34.7444
lhand 11.5294 44.5882
lfingers 7.12502
lthumb 36.5754 -1009.24
rfemur -5.88866 -3.34967 18.4451
rtibia 19.9536
rfoot -9.99656 -35.4015
rtoes -29.8858
lfemur -30.2542 -2.72441 -7.28042
ltibia 42.9846
lfoot -16.104 15.8366
ltoes 59.8071
1429
root 1.472 17.2632 13.8513 1622.68 45.2387 538.855
lowerback -9.82834 8.6779 -13.3066
upperback 6.35631 13.4028 5.30244
thorax 8.16487 5.63709 15.1039
lowerneck -22.0521 -43.936 23.0738
upperneck -3.85566 -24.5016 359.317
head 199.208 -36.5141 7.95564
rclavicle -1.3736e-013 -8.11041e-014
rhumerus 6.27939 39.3618 -90.7935
rradius 70.3972
rwrist 20.9837
rhand -23.7958 -16.2814
rfingers 7.12502
rthumb 2.67457 -406.244
lclavicle -1.3736e-013 -8.11041e-014
lhumerus -27.2609 -30.7511 117.725
lradius 111.945
lwrist 34.5825
lhand 10.7011 43.6083
lfingers 7.12502
lthumb 35.791 -1010.02
rfemur -5.56629 -2.74949 18.3604
rtibia 18.9123
rfoot -9.93377 -36.4292
rtoes -28.8431
lfemur -29.8899 -4.10155 -6.74957
ltibia 42.8433
lfoot -14.4898 16.4681
ltoes 59.5739
1430
root 1.42945 17.2791 13.8008 1622.87 44.1135 538.625
lowerback -13.2467 8.1063 -18.0187
upperback 8.22413 14.1574 9.38991
thorax 9.65145 5.34547 23.4055
lowerneck -23.3671 -42.7971 18.1088
upperneck -4.90657 -20.9378 358.353
head 197.763 -43.7382 9.01979
rclavicle -8.0309e-014 1.11319e-014
rhumerus 10.6607 37.2506 -82.5526
rradius 66.7619
rwrist 21.8279
rhand -23.0248 -15.511
rfingers 7.12502
rthumb 3.41912 -405.463
lclavicle -8.0309e-014 1.11319e-014
lhumerus -24.5311 -28.4889 123.422
lradius 111.257
lwrist 33.4061
lhand 10.2411 42.7942
lfingers 7.12502
lthumb 35.355 -1010.73
rfemur -5.43578 -2.48369 18.0694
rtibia 18.3266
rfoot -10.1721 -37.1292
rtoes -28.1757
lfemur -29.2591 -5.6884 -6.28774
ltibia 41.9095
lfoot -13.4735 15.6845
ltoes 58.3323
1431
root 1.39945 17.2937 13.7442 1623.03 43.0418 538.52
lowerback -9.88 9.33251 -13.4919
upperback 5.90021 14.2721 5.01963
thorax 7.41283 6.16931 14.8083
lowerneck -24.0003 -45.1027 24.9724
upperneck -3.50767 -25.185 359.343
head 198.814 -38.4721 8.43504
rclavicle 1.10723e-013 2.8625e-014
rhumerus 11.1715 29.3911 -92.6638
rradius 62.1068
rwrist 25.5534
rhand -21.9415 -14.0366
rfingers 7.12502
rthumb 4.46524 -403.97
lclavicle 1.10723e-013 2.8625e-014
lhumerus -27.5859 -29.7126 116.484
lradius 112.161
lwrist 33.6202
lhand 10.0073 42.5009
lfingers 7.12502
lthumb 35.1333 -1010.97
rfemur -5.32101 -2.2946 17.8214
rtibia 18.068
rfoot -10.5359 -37.7488
rtoes -28.044
lfemur -28.2089 -7.30922 -5.72577
ltibia 39.729
lfoot -12.0167 14.3185
ltoes 54.044
1432
root 1.36356 17.3082 13.6747 1623.15 42.0016 538.443
lowerback -13.3827 8.71308 -18.1864
upperback 7.98882 15.0117 9.25365
thorax 9.02268 5.8942 23.2366
lowerneck -25.3195 -43.533 19.8066
upperneck -4.52501 -20.1044 358.282
head 196.51 -47.242 10.4261
rclavicle 5.1684e-015 -7.95139e-015
rhumerus 15.5044 27.824 -84.2782
rradius 58.4521
rwrist 25.0627
rhand -21.0309 -13.0686
rfingers 7.12502
rthumb 5.34453 -402.981
lclavicle 5.1684e-015 -7.95139e-015
lhumerus -25.282 -27.2893 122.453
lradius 111.538
lwrist 32.7812
lhand 10.1906 42.0575
lfingers 7.12502
lthumb 35.3071 -1011.46
rfemur -5.21056 -2.16097 17.5245
rtibia 17.9458
rfoot -10.9573 -38.2868
rtoes -27.8322
lfemur -26.867 -9.27881 -5.2161
ltibia 36.3655
lfoot -11.7871 11.9702
ltoes 51.4935
1433
root 1.32247 17.3235 13.5935 1623.11 40.9632 538.045
lowerback -9.59202 9.81137 -13.5619
upperback 5.48 14.8497 4.60628
thorax 6.67555 6.56119 14.2266
lowerneck -26.036 -46.0332 27.1115
upperneck -3.20373 -25.2801 359.293
head 198.656 -40.5431 9.07227
rclavicle 1.39149e-014 6.99722e-014
rhumerus 16.1393 20.7171 -94.0608
rradius 54.2804
rwrist 26.0695
rhand -20.8224 -12.1011
rfingers 7.12502
rthumb 5.54583 -402.008
lclavicle 1.39149e-014 6.99722e-014
lhumerus -28.7709 -28.3872 115.197
lradius 112.533
lwrist 33.6553
lhand 10.405 41.8342
lfingers 7.12502
lthumb 35.5103 -1011.73
rfemur -5.1157 -1.9306 16.9135
rtibia 17.828
rfoot -11.5829 -38.884
rtoes -26.8422
lfemur -25.5025 -10.9408 -5.36301
ltibia 33.1263
lfoot -11.6632 10.6714
ltoes 46.4596
1434
root 1.2757 17.3374 13.5023 1622.98 39.8943 537.454
lowerback -13.5364 8.79293 -18.9752
upperback 7.86116 15.2878 9.14644
thorax 8.66638 6.04496 23.5129
lowerneck -26.8453 -44.0647 20.8612
upperneck -4.47153 -20.2949 358.297
head 196.359 -49.0138 10.8502
rclavicle -1.68569e-013 8.26944e-014
rhumerus 20.4957 21 -84.44
rradius 50.7333
rwrist 24.952
rhand -20.5919 -11.4827
rfingers 7.12502
rthumb 5.76833 -401.384
lclavicle -1.68569e-013 8.26944e-014
lhumerus -26.3469 -25.3982 121.772
lradius 111.752
lwrist 33.3132
lhand 10.5543 41.4788
lfingers 7.12502
lthumb 35.6518 -1012.12
rfemur -5.15479 -1.78969 16.0834
rtibia 17.9413
rfoot -12.209 -39.5736
rtoes -25.5845
lfemur -24.4732 -12.0224 -6.06948
ltibia 30.5956
lfoot -12.0343 10.164
ltoes 41.9513
1435
root 1.21908 17.3473 13.4053 1623.03 38.7714 537.242
lowerback -9.68669 9.78223 -14.2428
upperback 5.40667 14.9079 4.65292
thorax 6.46224 6.58168 14.6409
lowerneck -27.4328 -46.3526 27.7339
upperneck -3.14397 -25.4896 359.344
head 198.16 -42.2617 9.38922
rclavicle 1.05157e-013 -3.02153e-014
rhumerus 21.0865 14.757 -93.2606
rradius 46.9063
rwrist 28.7646
rhand -21.0122 -10.5001
rfingers 7.12502
rthumb 5.36254 -400.412
lclavicle 1.05157e-013 -3.02153e-014
lhumerus -29.8148 -26.6687 114.697
lradius 112.595
lwrist 34.6144
lhand 10.6524 41.663
lfingers 7.12502
lthumb 35.7448 -1011.96
rfemur -5.20698 -1.77779 15.5752
rtibia 18.282
rfoot -12.5904 -40.3981
rtoes -24.6061
lfemur -23.682 -12.4588 -6.78461
ltibia 28.5816
lfoot -12.8707 10.0774
ltoes 40.6343
1436
root 1.15437 17.3574 13.3028 1623.15 37.6179 537.056
lowerback -13.3091 8.84515 -19.0651
upperback 7.69272 15.3207 9.14768
thorax 8.30727 6.13722 23.4524
lowerneck -28.3921 -44.284 21.6322
upperneck -4.34345 -19.8424 358.298
head 195.371 -51.8706 11.7615
rclavicle 4.73108e-014 1.27222e-013
rhumerus 25.1046 15.8715 -83.0788
rradius 43.9112
rwrist 27.9033
rhand -21.1262 -10.46
rfingers 7.12502
rthumb 5.25251 -400.375
lclavicle 4.73108e-014 1.27222e-013
lhumerus -27.6598 -24.2823 121.485
lradius 111.608
lwrist 34.2623
lhand 10.8662 41.6297
lfingers 7.12502
lthumb 35.9474 -1012.04
rfemur -5.34516 -1.92388 15.0376
rtibia 18.7156
rfoot -12.907 -41.205
rtoes -23.7676
lfemur -23.1032 -12.2866 -7.79519
ltibia 26.8503
lfoot -13.4256 10.3287
ltoes 39.8527
